<svg style="background-color:white" height="3in" viewBox="0 0 76.2 76.2" width="3in" xmlns="http://www.w3.org/2000/svg"><path d="m17.782493 4.933003v56.355824" fill="none" stroke="#000" stroke-width=".5"/><path d="m76.033657 60.963027c-19.341384.04989-38.683012.09977-58.024887.149659" fill="none" stroke="#000" stroke-width=".5"/><text font-family="Arial" font-size="4.93889" stroke-width=".264583" text-anchor="middle" word-spacing="0" x="16.585062" y="65.633263"><tspan font-size="4.93889" stroke-width=".264583" x="16.585062" y="65.633263">0</tspan></text><text font-family="Arial" font-size="4.93889" stroke-width=".264583" text-anchor="middle" word-spacing="0" x="46.286137" y="66.806313"><tspan font-size="4.93889" stroke-width=".264583" x="46.286137" y="66.806313">[S]</tspan></text><text font-family="Arial" font-size="4.93889" stroke-width=".264583" text-anchor="middle" word-spacing="0" x="8.186891" y="51.081661"><tspan font-size="4.93889" stroke-width=".264583" x="8.186891" y="51.081661">Rate</tspan></text><g fill="none"><path d="m18.00877 61.112685c2.231523-9.889197 4.46309-19.778589 9.447623-27.582049s12.721633-13.520529 20.973628-16.493453 17.018167-3.201606 25.784256-3.430287" stroke="#000" stroke-width=".5"/><path d="m17.568993 12.250702h56.594232" stroke="#c8a9fa" stroke-dasharray="1.50755 .502518" stroke-width=".502518"/><path d="m17.75513 34.64613h8.918806" stroke="#a8cbfe" stroke-dasharray="1.5 .5" stroke-width=".5"/><path d="m26.673936 34.646129c-.01051 8.826148-.02103 17.652034-.03154 26.477653" stroke="#f2b6bc" stroke-dasharray="1.5 .5" stroke-width=".5"/></g><path d="m22.847944 62.099648h8.161354v5.74439h-8.161354z" fill="#f2b6bc" stroke="#000" stroke-width=".5"/><text font-family="Arial" font-size="4.93889" stroke-width=".264583" text-anchor="middle" word-spacing="0" x="27.015587" y="66.18351"><tspan font-size="4.93889" stroke-width=".264583" x="27.015587" y="66.18351">K<tspan baseline-shift="sub" font-size="65%">m</tspan></tspan></text><path d="m3.092632 28.159149h11.94788v12.164265h-11.94788z" fill="#a8cbfe" stroke="#000" stroke-width=".5"/><path d="m4.514679 9.447845h10.377742v6.037215h-10.377742z" fill="#c8a9fa" stroke="#000" stroke-width=".5"/><text font-family="Arial" font-size="4.93889" stroke-width=".264583" text-anchor="middle" word-spacing="0" x="9.116174" y="32.871517"><tspan font-size="4.93889" stroke-width=".264583" x="9.116174" y="32.871517">V<tspan baseline-shift="sub" font-size="65%">max</tspan></tspan><tspan font-size="4.93889" stroke-width=".264583" x="9.116174" y="39.045128">2</tspan></text><text font-family="Arial" font-size="4.93889" stroke-width=".264583" text-anchor="middle" word-spacing="0" x="9.853052" y="13.721614"><tspan font-size="4.93889" stroke-width=".264583" x="9.853052" y="13.721614">V<tspan baseline-shift="sub" font-size="65%">max</tspan></tspan></text><path d="m3.9300431 34.647296c3.4232157-.02463 6.8461909-.04925 10.2689269-.07388" fill="none" stroke="#000" stroke-width=".253451"/></svg>
